<?xml version="1.0" encoding="UTF-8"?><svg id="_レイヤー_2" xmlns="http://www.w3.org/2000/svg" viewBox="0 0 52.48 10.9"><defs><style>.cls-1{stroke-width:0px;}</style></defs><g id="_レイヤー_1-2"><path class="cls-1" d="m17.7,8.46h3.47v1.33h-5.09V1.11h1.61v7.34Z"/><path class="cls-1" d="m31.81,5.45c0,.64-.11,1.23-.32,1.77s-.51,1.01-.89,1.41c-.38.4-.85.71-1.39.93-.54.22-1.14.33-1.79.33s-1.26-.11-1.8-.33c-.54-.22-1.01-.53-1.39-.93-.39-.4-.69-.86-.9-1.41-.21-.54-.32-1.13-.32-1.77s.11-1.23.32-1.77c.21-.54.51-1.01.9-1.41.39-.4.85-.7,1.39-.93s1.14-.33,1.8-.33,1.25.11,1.79.34,1,.53,1.39.93c.38.39.68.86.89,1.4s.32,1.13.32,1.77Zm-1.66,0c0-.48-.06-.9-.19-1.28s-.31-.7-.54-.96c-.24-.26-.52-.47-.86-.61-.34-.14-.72-.21-1.14-.21s-.81.07-1.15.21c-.34.14-.63.34-.87.61s-.42.58-.55.96c-.13.38-.19.81-.19,1.28s.06.9.19,1.28c.13.38.31.7.55.96.24.26.53.46.87.6.34.14.72.21,1.15.21s.8-.07,1.14-.21c.34-.14.62-.34.86-.6.24-.26.42-.58.54-.96s.19-.8.19-1.28Z"/><path class="cls-1" d="m38.27,8.6c.36,0,.68-.03.95-.1s.53-.16.77-.27v-1.58h-1.09c-.1,0-.19-.03-.25-.09-.06-.06-.09-.13-.09-.21v-.91h2.89v3.51c-.22.16-.45.3-.69.42-.24.12-.49.21-.76.29-.27.08-.56.13-.87.17s-.64.06-1,.06c-.63,0-1.21-.11-1.75-.33-.53-.22-.99-.53-1.38-.92s-.69-.86-.91-1.4c-.22-.54-.33-1.14-.33-1.78s.11-1.25.32-1.79.51-1.01.9-1.4c.39-.39.86-.7,1.42-.91.56-.22,1.18-.32,1.87-.32s1.32.1,1.84.31.96.48,1.32.82l-.47.73c-.09.15-.21.22-.37.22-.1,0-.19-.03-.29-.1-.13-.08-.26-.15-.39-.23-.13-.08-.28-.14-.44-.2-.16-.06-.34-.1-.55-.14-.2-.04-.43-.05-.7-.05-.43,0-.81.07-1.16.22s-.64.35-.88.62c-.24.27-.43.59-.56.97-.13.38-.2.8-.2,1.26,0,.5.07.94.21,1.33s.34.72.59.99.55.47.9.62c.35.14.73.21,1.14.21Z"/><path class="cls-1" d="m52.48,5.45c0,.64-.11,1.23-.32,1.77s-.51,1.01-.89,1.41c-.38.4-.85.71-1.39.93-.54.22-1.14.33-1.79.33s-1.26-.11-1.8-.33c-.54-.22-1.01-.53-1.39-.93-.39-.4-.69-.86-.9-1.41-.21-.54-.32-1.13-.32-1.77s.11-1.23.32-1.77c.21-.54.51-1.01.9-1.41.39-.4.85-.7,1.39-.93s1.14-.33,1.8-.33,1.25.11,1.79.34,1,.53,1.39.93c.38.39.68.86.89,1.4s.32,1.13.32,1.77Zm-1.66,0c0-.48-.06-.9-.19-1.28s-.31-.7-.54-.96c-.24-.26-.52-.47-.86-.61-.34-.14-.72-.21-1.14-.21s-.81.07-1.15.21c-.34.14-.63.34-.87.61s-.42.58-.55.96c-.13.38-.19.81-.19,1.28s.06.9.19,1.28c.13.38.31.7.55.96.24.26.53.46.87.6.34.14.72.21,1.15.21s.8-.07,1.14-.21c.34-.14.62-.34.86-.6.24-.26.42-.58.54-.96s.19-.8.19-1.28Z"/><path class="cls-1" d="m6.09.24l1.44,2.91c.06.13.18.21.32.23l3.21.47c.35.05.49.48.23.72l-2.32,2.26c-.1.1-.15.24-.12.38l.55,3.2c.06.35-.3.61-.62.45l-2.87-1.51c-.12-.06-.27-.06-.39,0l-2.87,1.51c-.31.16-.67-.1-.62-.45l.55-3.2c.02-.14-.02-.28-.12-.38L.13,4.57c-.25-.25-.11-.67.23-.72l3.21-.47c.14-.02.26-.11.32-.23L5.33.24c.16-.32.6-.32.76,0Z"/></g></svg>