<?xml version="1.0" encoding="UTF-8"?><svg id="_レイヤー_2" xmlns="http://www.w3.org/2000/svg" viewBox="0 0 100 100"><defs><style>.cls-1{fill:#2d2a2e;}</style></defs><g id="_レイヤー_1-2"><g id="sns_ico-insta"><path class="cls-1" d="M69.51,40.27c-.11-2.34-.5-3.61-.83-4.45-.44-1.12-.96-1.92-1.8-2.76s-1.64-1.36-2.76-1.79c-.85-.33-2.12-.71-4.46-.82-2.53-.11-3.29-.13-9.7-.12-6.41.01-7.16.04-9.7.16-2.34.11-3.61.5-4.45.83-1.12.44-1.92.96-2.76,1.8-.84.84-1.36,1.64-1.79,2.76-.33.85-.72,2.12-.82,4.46-.11,2.53-.13,3.29-.12,9.7.01,6.41.04,7.17.16,9.7.11,2.34.51,3.61.83,4.46.44,1.12.96,1.92,1.8,2.76.84.84,1.64,1.36,2.76,1.79.85.33,2.12.71,4.46.82,2.53.11,3.29.13,9.7.12,6.41-.01,7.17-.04,9.7-.16,2.34-.11,3.61-.5,4.45-.83,1.12-.44,1.92-.96,2.76-1.8.84-.84,1.36-1.64,1.79-2.76.33-.85.71-2.12.82-4.46.11-2.53.13-3.29.12-9.7-.01-6.41-.04-7.17-.16-9.7ZM50.02,62.32c-6.8.01-12.33-5.49-12.35-12.3-.01-6.8,5.49-12.33,12.3-12.35,6.81-.01,12.34,5.5,12.35,12.3.01,6.81-5.5,12.33-12.3,12.35ZM62.79,40.04c-1.59,0-2.88-1.28-2.88-2.87,0-1.59,1.28-2.88,2.87-2.88,1.59,0,2.88,1.28,2.89,2.87,0,1.59-1.28,2.88-2.87,2.88Z"/><path class="cls-1" d="M49.98,42c-4.42,0-7.99,3.6-7.98,8.01,0,4.42,3.6,7.99,8.01,7.98,4.42,0,7.99-3.6,7.99-8.01,0-4.42-3.6-7.99-8.02-7.98Z"/><path class="cls-1" d="M50,0C22.39,0,0,22.39,0,50s22.39,50,50,50,50-22.39,50-50S77.61,0,50,0ZM73.87,59.85c-.11,2.55-.51,4.3-1.1,5.83-.61,1.58-1.43,2.92-2.76,4.26-1.33,1.34-2.67,2.16-4.25,2.78-1.53.6-3.27,1-5.82,1.13-2.56.12-3.38.15-9.9.16-6.52.01-7.33-.01-9.89-.13-2.55-.11-4.3-.51-5.83-1.1-1.58-.61-2.92-1.43-4.26-2.76-1.34-1.33-2.16-2.67-2.78-4.25-.6-1.52-1-3.27-1.13-5.82-.12-2.56-.15-3.38-.16-9.9-.01-6.52.01-7.33.13-9.89.11-2.56.51-4.3,1.1-5.83.61-1.58,1.43-2.92,2.76-4.26,1.33-1.34,2.67-2.16,4.25-2.78,1.52-.6,3.27-1.01,5.82-1.13,2.56-.12,3.38-.15,9.89-.16,6.52-.01,7.34.01,9.89.13,2.55.11,4.3.51,5.83,1.1,1.58.61,2.92,1.43,4.26,2.76,1.34,1.33,2.16,2.67,2.78,4.25.6,1.53,1.01,3.27,1.13,5.82.12,2.56.15,3.38.16,9.89.01,6.52-.01,7.33-.13,9.9Z"/></g></g></svg>